<svg width="40" height="36" viewBox="0 0 40 36" fill="none" xmlns="http://www.w3.org/2000/svg">
<path d="M18 36V32H34V17.8C34 13.9 32.6417 10.5917 29.925 7.875C27.2083 5.15833 23.9 3.8 20 3.8C16.1 3.8 12.7917 5.15833 10.075 7.875C7.35833 10.5917 6 13.9 6 17.8V30H4C2.9 30 1.95833 29.6083 1.175 28.825C0.391667 28.0417 0 27.1 0 26V22C0 21.3 0.175 20.6417 0.525 20.025C0.875 19.4083 1.36667 18.9167 2 18.55L2.15 15.9C2.41667 13.6333 3.075 11.5333 4.125 9.6C5.175 7.66667 6.49167 5.98333 8.075 4.55C9.65833 3.11667 11.475 2 13.525 1.2C15.575 0.4 17.7333 0 20 0C22.2667 0 24.4167 0.4 26.45 1.2C28.4833 2 30.3 3.10833 31.9 4.525C33.5 5.94167 34.8167 7.61667 35.85 9.55C36.8833 11.4833 37.55 13.5833 37.85 15.85L38 18.45C38.6333 18.75 39.125 19.2 39.475 19.8C39.825 20.4 40 21.0333 40 21.7V26.3C40 26.9667 39.825 27.6 39.475 28.2C39.125 28.8 38.6333 29.25 38 29.55V32C38 33.1 37.6083 34.0417 36.825 34.825C36.0417 35.6083 35.1 36 34 36H18ZM14 22C13.4333 22 12.9583 21.8083 12.575 21.425C12.1917 21.0417 12 20.5667 12 20C12 19.4333 12.1917 18.9583 12.575 18.575C12.9583 18.1917 13.4333 18 14 18C14.5667 18 15.0417 18.1917 15.425 18.575C15.8083 18.9583 16 19.4333 16 20C16 20.5667 15.8083 21.0417 15.425 21.425C15.0417 21.8083 14.5667 22 14 22ZM26 22C25.4333 22 24.9583 21.8083 24.575 21.425C24.1917 21.0417 24 20.5667 24 20C24 19.4333 24.1917 18.9583 24.575 18.575C24.9583 18.1917 25.4333 18 26 18C26.5667 18 27.0417 18.1917 27.425 18.575C27.8083 18.9583 28 19.4333 28 20C28 20.5667 27.8083 21.0417 27.425 21.425C27.0417 21.8083 26.5667 22 26 22ZM8.05 18.9C7.81667 15.3667 8.88333 12.3333 11.25 9.8C13.6167 7.26667 16.5667 6 20.1 6C23.0667 6 25.675 6.94167 27.925 8.825C30.175 10.7083 31.5333 13.1167 32 16.05C28.9667 16.0167 26.175 15.2 23.625 13.6C21.075 12 19.1167 9.83333 17.75 7.1C17.2167 9.76667 16.0917 12.1417 14.375 14.225C12.6583 16.3083 10.55 17.8667 8.05 18.9Z" fill="#00288E"/>
</svg>
