<svg width="18" height="20" viewBox="0 0 18 20" fill="none" xmlns="http://www.w3.org/2000/svg">
<path d="M5.55 18H12.45L13.45 14H4.55L5.55 18ZM5.55 20C5.08333 20 4.675 19.8583 4.325 19.575C3.975 19.2917 3.74167 18.925 3.625 18.475L2.5 14H15.5L14.375 18.475C14.2583 18.925 14.025 19.2917 13.675 19.575C13.325 19.8583 12.9167 20 12.45 20H5.55ZM2 12H16V10H2V12ZM9 6C9 4.33333 9.58333 2.91667 10.75 1.75C11.9167 0.583333 13.3333 0 15 0C15 1.5 14.525 2.8 13.575 3.9C12.625 5 11.4333 5.66667 10 5.9V8H18V12C18 12.55 17.8042 13.0208 17.4125 13.4125C17.0208 13.8042 16.55 14 16 14H2C1.45 14 0.979167 13.8042 0.5875 13.4125C0.195833 13.0208 0 12.55 0 12V8H8V5.9C6.56667 5.66667 5.375 5 4.425 3.9C3.475 2.8 3 1.5 3 0C4.66667 0 6.08333 0.583333 7.25 1.75C8.41667 2.91667 9 4.33333 9 6Z" fill="#006C49"/>
</svg>
