<svg width="20" height="18" viewBox="0 0 20 18" fill="none" xmlns="http://www.w3.org/2000/svg">
<path d="M0 18V16C0.633333 16 1.10833 15.8333 1.425 15.5C1.74167 15.1667 2.36667 15 3.3 15C4.23333 15 4.875 15.1667 5.225 15.5C5.575 15.8333 6.05 16 6.65 16C7.25 16 7.725 15.8333 8.075 15.5C8.425 15.1667 9.06667 15 10 15C10.9333 15 11.575 15.1667 11.925 15.5C12.275 15.8333 12.75 16 13.35 16C13.95 16 14.425 15.8333 14.775 15.5C15.125 15.1667 15.7667 15 16.7 15C17.6333 15 18.2583 15.1667 18.575 15.5C18.8917 15.8333 19.3667 16 20 16V18C19.0167 18 18.3708 17.8333 18.0625 17.5C17.7542 17.1667 17.3 17 16.7 17C16.1 17 15.625 17.1667 15.275 17.5C14.925 17.8333 14.2833 18 13.35 18C12.4167 18 11.775 17.8333 11.425 17.5C11.075 17.1667 10.6 17 10 17C9.4 17 8.925 17.1667 8.575 17.5C8.225 17.8333 7.58333 18 6.65 18C5.71667 18 5.075 17.8333 4.725 17.5C4.375 17.1667 3.9 17 3.3 17C2.7 17 2.24583 17.1667 1.9375 17.5C1.62917 17.8333 0.983333 18 0 18ZM0 13.5V11.5C0.633333 11.5 1.10833 11.3333 1.425 11C1.74167 10.6667 2.36667 10.5 3.3 10.5C4.23333 10.5 4.87917 10.6667 5.2375 11C5.59583 11.3333 6.06667 11.5 6.65 11.5C7.25 11.5 7.725 11.3333 8.075 11C8.425 10.6667 9.06667 10.5 10 10.5C10.9333 10.5 11.575 10.6667 11.925 11C12.275 11.3333 12.75 11.5 13.35 11.5C13.95 11.5 14.425 11.3333 14.775 11C15.125 10.6667 15.7667 10.5 16.7 10.5C17.6333 10.5 18.2583 10.6667 18.575 11C18.8917 11.3333 19.3667 11.5 20 11.5V13.5C19.0167 13.5 18.3708 13.3333 18.0625 13C17.7542 12.6667 17.3 12.5 16.7 12.5C16.1 12.5 15.6375 12.6667 15.3125 13C14.9875 13.3333 14.3333 13.5 13.35 13.5C12.4 13.5 11.7542 13.3333 11.4125 13C11.0708 12.6667 10.6 12.5 10 12.5C9.36667 12.5 8.89583 12.6667 8.5875 13C8.27917 13.3333 7.63333 13.5 6.65 13.5C5.66667 13.5 5.0125 13.3333 4.6875 13C4.3625 12.6667 3.9 12.5 3.3 12.5C2.7 12.5 2.24583 12.6667 1.9375 13C1.62917 13.3333 0.983333 13.5 0 13.5ZM4.9 8.4L8.225 5.075L7.225 4.075C6.675 3.525 6.09167 3.125 5.475 2.875C4.85833 2.625 4.1 2.5 3.2 2.5V0C4.45 0 5.48333 0.1375 6.3 0.4125C7.11667 0.6875 7.91667 1.21667 8.7 2L15.1 8.4C14.8167 8.58333 14.5417 8.72917 14.275 8.8375C14.0083 8.94583 13.7 9 13.35 9C12.75 9 12.275 8.83333 11.925 8.5C11.575 8.16667 10.9333 8 10 8C9.06667 8 8.425 8.16667 8.075 8.5C7.725 8.83333 7.25 9 6.65 9C6.3 9 5.99167 8.94583 5.725 8.8375C5.45833 8.72917 5.18333 8.58333 4.9 8.4ZM14.7 0C15.4 0 15.9917 0.245833 16.475 0.7375C16.9583 1.22917 17.2 1.81667 17.2 2.5C17.2 3.2 16.9583 3.79167 16.475 4.275C15.9917 4.75833 15.4 5 14.7 5C14 5 13.4083 4.75833 12.925 4.275C12.4417 3.79167 12.2 3.2 12.2 2.5C12.2 1.81667 12.4417 1.22917 12.925 0.7375C13.4083 0.245833 14 0 14.7 0Z" fill="#006C49"/>
</svg>
