<svg width="24" height="17" viewBox="0 0 24 17" fill="none" xmlns="http://www.w3.org/2000/svg">
<path d="M12 17C11.3 17 10.7083 16.7583 10.225 16.275C9.74167 15.7917 9.5 15.2 9.5 14.5C9.5 13.8 9.74167 13.2083 10.225 12.725C10.7083 12.2417 11.3 12 12 12C12.7 12 13.2917 12.2417 13.775 12.725C14.2583 13.2083 14.5 13.8 14.5 14.5C14.5 15.2 14.2583 15.7917 13.775 16.275C13.2917 16.7583 12.7 17 12 17ZM6.35 11.35L4.25 9.2C5.23333 8.21667 6.3875 7.4375 7.7125 6.8625C9.0375 6.2875 10.4667 6 12 6C13.5333 6 14.9625 6.29167 16.2875 6.875C17.6125 7.45833 18.7667 8.25 19.75 9.25L17.65 11.35C16.9167 10.6167 16.0667 10.0417 15.1 9.625C14.1333 9.20833 13.1 9 12 9C10.9 9 9.86667 9.20833 8.9 9.625C7.93333 10.0417 7.08333 10.6167 6.35 11.35ZM2.1 7.1L0 5C1.53333 3.43333 3.325 2.20833 5.375 1.325C7.425 0.441667 9.63333 0 12 0C14.3667 0 16.575 0.441667 18.625 1.325C20.675 2.20833 22.4667 3.43333 24 5L21.9 7.1C20.6167 5.81667 19.1292 4.8125 17.4375 4.0875C15.7458 3.3625 13.9333 3 12 3C10.0667 3 8.25417 3.3625 6.5625 4.0875C4.87083 4.8125 3.38333 5.81667 2.1 7.1Z" fill="#006C49"/>
</svg>
