<svg width="28" height="27" viewBox="0 0 28 27" fill="none" xmlns="http://www.w3.org/2000/svg">
<path d="M9.5 26.25L7.125 22.25L2.625 21.25L3.0625 16.625L0 13.125L3.0625 9.625L2.625 5L7.125 4L9.5 0L13.75 1.8125L18 0L20.375 4L24.875 5L24.4375 9.625L27.5 13.125L24.4375 16.625L24.875 21.25L20.375 22.25L18 26.25L13.75 24.4375L9.5 26.25ZM10.5625 23.0625L13.75 21.6875L17 23.0625L18.75 20.0625L22.1875 19.25L21.875 15.75L24.1875 13.125L21.875 10.4375L22.1875 6.9375L18.75 6.1875L16.9375 3.1875L13.75 4.5625L10.5 3.1875L8.75 6.1875L5.3125 6.9375L5.625 10.4375L3.3125 13.125L5.625 15.75L5.3125 19.3125L8.75 20.0625L10.5625 23.0625ZM12.4375 17.5625L19.5 10.5L17.75 8.6875L12.4375 14L9.75 11.375L8 13.125L12.4375 17.5625Z" fill="#00288E"/>
</svg>
